<svg width="56" height="56" viewBox="0 0 56 56" fill="none" xmlns="http://www.w3.org/2000/svg">
<path d="M0 16C0 7.16344 7.16344 0 16 0H40C48.8366 0 56 7.16344 56 16V40C56 48.8366 48.8366 56 40 56H16C7.16344 56 0 48.8366 0 40V16Z" fill="#4F39F6"/>
<path d="M28 21.3333V40" stroke="white" stroke-width="2.66667" stroke-linecap="round" stroke-linejoin="round"/>
<path d="M16 36C15.6464 36 15.3073 35.8595 15.0572 35.6095C14.8072 35.3594 14.6667 35.0203 14.6667 34.6667V17.3333C14.6667 16.9797 14.8072 16.6406 15.0572 16.3905C15.3073 16.1405 15.6464 16 16 16H22.6667C24.0812 16 25.4377 16.5619 26.4379 17.5621C27.4381 18.5623 28 19.9188 28 21.3333C28 19.9188 28.5619 18.5623 29.5621 17.5621C30.5623 16.5619 31.9189 16 33.3334 16H40C40.3536 16 40.6928 16.1405 40.9428 16.3905C41.1929 16.6406 41.3334 16.9797 41.3334 17.3333V34.6667C41.3334 35.0203 41.1929 35.3594 40.9428 35.6095C40.6928 35.8595 40.3536 36 40 36H32C30.9392 36 29.9217 36.4214 29.1716 37.1716C28.4214 37.9217 28 38.9391 28 40C28 38.9391 27.5786 37.9217 26.8284 37.1716C26.0783 36.4214 25.0609 36 24 36H16Z" stroke="white" stroke-width="2.66667" stroke-linecap="round" stroke-linejoin="round"/>
</svg>
