<svg width="40" height="40" viewBox="0 0 40 40" fill="none" xmlns="http://www.w3.org/2000/svg">
<path d="M0 10C0 4.47715 4.47715 0 10 0H30C35.5228 0 40 4.47715 40 10V30C40 35.5228 35.5228 40 30 40H10C4.47715 40 0 35.5228 0 30V10Z" fill="#4F39F6"/>
<path d="M23.477 20.89L24.992 29.416C25.009 29.5164 24.9949 29.6196 24.9516 29.7118C24.9084 29.8039 24.838 29.8807 24.7499 29.9318C24.6619 29.9829 24.5603 30.0059 24.4588 29.9977C24.3573 29.9895 24.2607 29.9506 24.182 29.886L20.602 27.199C20.4292 27.0699 20.2192 27.0001 20.0035 27.0001C19.7878 27.0001 19.5778 27.0699 19.405 27.199L15.819 29.885C15.7403 29.9494 15.6439 29.9884 15.5425 29.9966C15.4411 30.0048 15.3397 29.9818 15.2517 29.9309C15.1636 29.8799 15.0933 29.8033 15.0499 29.7113C15.0066 29.6194 14.9923 29.5163 15.009 29.416L16.523 20.89" stroke="white" stroke-width="2" stroke-linecap="round" stroke-linejoin="round"/>
<path d="M20 22C23.3137 22 26 19.3137 26 16C26 12.6863 23.3137 10 20 10C16.6863 10 14 12.6863 14 16C14 19.3137 16.6863 22 20 22Z" stroke="white" stroke-width="2" stroke-linecap="round" stroke-linejoin="round"/>
</svg>
